<svg xmlns="http://www.w3.org/2000/svg" xmlns:xlink="http://www.w3.org/1999/xlink" width="481pt" height="402pt" viewBox="0.00 0.00 480.66 402.00">
<g id="graph0" class="graph" transform="scale(1 1) rotate(0) translate(4 398)">
<title>G</title>
<polygon fill="white" stroke="none" points="-4,4 -4,-398 476.66,-398 476.66,4 -4,4"/>
<!-- level0_label -->
<g id="node1" class="node">
<title>level0_label</title>
<text text-anchor="middle" x="30" y="-380.1" font-family="Times,serif" font-size="9.00">START</text>
</g>
<!-- level1_label -->
<g id="node2" class="node">
<title>level1_label</title>
<text text-anchor="middle" x="30" y="-286.9" font-family="Times,serif" font-size="9.00">HERO Move 1</text>
</g>
<!-- level2_label -->
<g id="node3" class="node">
<title>level2_label</title>
<text text-anchor="middle" x="30" y="-193.7" font-family="Times,serif" font-size="9.00">VILLAIN Move 1</text>
</g>
<!-- level3_label -->
<g id="node4" class="node">
<title>level3_label</title>
<text text-anchor="middle" x="30" y="-100.5" font-family="Times,serif" font-size="9.00">HERO Move 2</text>
</g>
<!-- level4_label -->
<g id="node5" class="node">
<title>level4_label</title>
<text text-anchor="middle" x="30" y="-7.3" font-family="Times,serif" font-size="9.00">VILLAIN Move 2</text>
</g>
<!-- node_01 -->
<g id="node6" class="node">
<title>node_01</title>
<polygon fill="none" stroke="black" points="224.72,-394 173.88,-394 173.88,-372.8 224.72,-372.8 224.72,-394"/>
<text text-anchor="middle" x="199.3" y="-380.1" font-family="Times,serif" font-size="11.00">START</text>
</g>
<!-- node_11 -->
<g id="node7" class="node">
<title>node_11</title>
<polygon fill="none" stroke="black" points="194.94,-300.8 141.66,-300.8 141.66,-279.6 194.94,-279.6 194.94,-300.8"/>
<text text-anchor="middle" x="168.3" y="-286.9" font-family="Times,serif" font-size="11.00">CHECK</text>
</g>
<!-- node_01&#45;&gt;node_11 -->
<g id="edge1" class="edge">
<title>node_01-&gt;node_11</title>
<path fill="none" stroke="black" d="M195.98,-372.64C191.09,-358.25 181.82,-330.99 175.36,-311.99"/>
<polygon fill="black" stroke="black" points="178.71,-310.94 172.17,-302.6 172.08,-313.19 178.71,-310.94"/>
</g>
<!-- node_12 -->
<g id="node8" class="node">
<title>node_12</title>
<polygon fill="none" stroke="black" points="249.69,-300.8 212.91,-300.8 212.91,-279.6 249.69,-279.6 249.69,-300.8"/>
<text text-anchor="middle" x="231.3" y="-286.9" font-family="Times,serif" font-size="11.00">BET</text>
</g>
<!-- node_01&#45;&gt;node_12 -->
<g id="edge2" class="edge">
<title>node_01-&gt;node_12</title>
<path fill="none" stroke="black" d="M202.72,-372.64C207.77,-358.25 217.34,-330.99 224,-311.99"/>
<polygon fill="black" stroke="black" points="227.29,-313.19 227.3,-302.59 220.69,-310.87 227.29,-313.19"/>
</g>
<!-- node_21 -->
<g id="node9" class="node">
<title>node_21</title>
<polygon fill="none" stroke="black" points="131.94,-207.6 78.66,-207.6 78.66,-186.4 131.94,-186.4 131.94,-207.6"/>
<text text-anchor="middle" x="105.3" y="-193.7" font-family="Times,serif" font-size="11.00">CHECK</text>
</g>
<!-- node_11&#45;&gt;node_21 -->
<g id="edge3" class="edge">
<title>node_11-&gt;node_21</title>
<path fill="none" stroke="black" d="M161.56,-279.44C151.33,-264.64 131.71,-236.23 118.55,-217.19"/>
<polygon fill="black" stroke="black" points="121.61,-215.45 113.04,-209.21 115.85,-219.43 121.61,-215.45"/>
</g>
<!-- node_22 -->
<g id="node10" class="node">
<title>node_22</title>
<polygon fill="none" stroke="black" points="186.69,-207.6 149.91,-207.6 149.91,-186.4 186.69,-186.4 186.69,-207.6"/>
<text text-anchor="middle" x="168.3" y="-193.7" font-family="Times,serif" font-size="11.00">BET</text>
</g>
<!-- node_11&#45;&gt;node_22 -->
<g id="edge4" class="edge">
<title>node_11-&gt;node_22</title>
<path fill="none" stroke="black" d="M168.3,-279.44C168.3,-265.18 168.3,-238.3 168.3,-219.33"/>
<polygon fill="black" stroke="black" points="171.8,-219.48 168.3,-209.48 164.8,-219.48 171.8,-219.48"/>
</g>
<!-- node_23 -->
<g id="node11" class="node">
<title>node_23</title>
<polygon fill="none" stroke="black" points="251.66,-207.6 206.94,-207.6 206.94,-186.4 251.66,-186.4 251.66,-207.6"/>
<text text-anchor="middle" x="229.3" y="-193.7" font-family="Times,serif" font-size="11.00">FOLD</text>
</g>
<!-- node_12&#45;&gt;node_23 -->
<g id="edge5" class="edge">
<title>node_12-&gt;node_23</title>
<path fill="none" stroke="black" d="M231.08,-279.44C230.77,-265.18 230.18,-238.3 229.77,-219.33"/>
<polygon fill="black" stroke="black" points="233.27,-219.4 229.55,-209.48 226.27,-219.55 233.27,-219.4"/>
</g>
<!-- node_24 -->
<g id="node12" class="node">
<title>node_24</title>
<polygon fill="none" stroke="black" points="314.66,-207.6 269.94,-207.6 269.94,-186.4 314.66,-186.4 314.66,-207.6"/>
<text text-anchor="middle" x="292.3" y="-193.7" font-family="Times,serif" font-size="11.00">CALL</text>
</g>
<!-- node_12&#45;&gt;node_24 -->
<g id="edge6" class="edge">
<title>node_12-&gt;node_24</title>
<path fill="none" stroke="black" d="M237.83,-279.44C247.68,-264.71 266.55,-236.49 279.29,-217.45"/>
<polygon fill="black" stroke="black" points="282.14,-219.48 284.79,-209.22 276.32,-215.59 282.14,-219.48"/>
</g>
<!-- node_25 -->
<g id="node13" class="node">
<title>node_25</title>
<polygon fill="none" stroke="black" points="380.19,-207.6 332.41,-207.6 332.41,-186.4 380.19,-186.4 380.19,-207.6"/>
<text text-anchor="middle" x="356.3" y="-193.7" font-family="Times,serif" font-size="11.00">RAISE</text>
</g>
<!-- node_12&#45;&gt;node_25 -->
<g id="edge7" class="edge">
<title>node_12-&gt;node_25</title>
<path fill="none" stroke="black" d="M244.68,-279.44C265.9,-263.96 307.53,-233.58 333.52,-214.62"/>
<polygon fill="black" stroke="black" points="335.4,-217.58 341.42,-208.86 331.27,-211.92 335.4,-217.58"/>
</g>
<!-- node_31 -->
<g id="node14" class="node">
<title>node_31</title>
<polygon fill="none" stroke="black" points="124.66,-114.4 79.94,-114.4 79.94,-93.2 124.66,-93.2 124.66,-114.4"/>
<text text-anchor="middle" x="102.3" y="-100.5" font-family="Times,serif" font-size="11.00">FOLD</text>
</g>
<!-- node_22&#45;&gt;node_31 -->
<g id="edge8" class="edge">
<title>node_22-&gt;node_31</title>
<path fill="none" stroke="black" d="M161.23,-186.24C150.52,-171.44 129.96,-143.03 116.19,-123.99"/>
<polygon fill="black" stroke="black" points="119.1,-122.04 110.4,-115.99 113.43,-126.15 119.1,-122.04"/>
</g>
<!-- node_32 -->
<g id="node15" class="node">
<title>node_32</title>
<polygon fill="none" stroke="black" points="187.66,-114.4 142.94,-114.4 142.94,-93.2 187.66,-93.2 187.66,-114.4"/>
<text text-anchor="middle" x="165.3" y="-100.5" font-family="Times,serif" font-size="11.00">CALL</text>
</g>
<!-- node_22&#45;&gt;node_32 -->
<g id="edge9" class="edge">
<title>node_22-&gt;node_32</title>
<path fill="none" stroke="black" d="M167.98,-186.24C167.51,-171.98 166.62,-145.1 166,-126.13"/>
<polygon fill="black" stroke="black" points="169.5,-126.16 165.68,-116.28 162.51,-126.39 169.5,-126.16"/>
</g>
<!-- node_33 -->
<g id="node16" class="node">
<title>node_33</title>
<polygon fill="none" stroke="black" points="253.19,-114.4 205.41,-114.4 205.41,-93.2 253.19,-93.2 253.19,-114.4"/>
<text text-anchor="middle" x="229.3" y="-100.5" font-family="Times,serif" font-size="11.00">RAISE</text>
</g>
<!-- node_22&#45;&gt;node_33 -->
<g id="edge10" class="edge">
<title>node_22-&gt;node_33</title>
<path fill="none" stroke="black" d="M174.83,-186.24C184.68,-171.51 203.55,-143.29 216.29,-124.25"/>
<polygon fill="black" stroke="black" points="219.14,-126.28 221.79,-116.02 213.32,-122.39 219.14,-126.28"/>
</g>
<!-- node_34 -->
<g id="node17" class="node">
<title>node_34</title>
<polygon fill="none" stroke="black" points="315.66,-114.4 270.94,-114.4 270.94,-93.2 315.66,-93.2 315.66,-114.4"/>
<text text-anchor="middle" x="293.3" y="-100.5" font-family="Times,serif" font-size="11.00">FOLD</text>
</g>
<!-- node_25&#45;&gt;node_34 -->
<g id="edge11" class="edge">
<title>node_25-&gt;node_34</title>
<path fill="none" stroke="black" d="M349.56,-186.24C339.33,-171.44 319.71,-143.03 306.55,-123.99"/>
<polygon fill="black" stroke="black" points="309.61,-122.25 301.04,-116.01 303.85,-126.23 309.61,-122.25"/>
</g>
<!-- node_35 -->
<g id="node18" class="node">
<title>node_35</title>
<polygon fill="none" stroke="black" points="378.66,-114.4 333.94,-114.4 333.94,-93.2 378.66,-93.2 378.66,-114.4"/>
<text text-anchor="middle" x="356.3" y="-100.5" font-family="Times,serif" font-size="11.00">CALL</text>
</g>
<!-- node_25&#45;&gt;node_35 -->
<g id="edge12" class="edge">
<title>node_25-&gt;node_35</title>
<path fill="none" stroke="black" d="M356.3,-186.24C356.3,-171.98 356.3,-145.1 356.3,-126.13"/>
<polygon fill="black" stroke="black" points="359.8,-126.28 356.3,-116.28 352.8,-126.28 359.8,-126.28"/>
</g>
<!-- node_36 -->
<g id="node19" class="node">
<title>node_36</title>
<polygon fill="none" stroke="black" points="442.27,-114.4 396.33,-114.4 396.33,-93.2 442.27,-93.2 442.27,-114.4"/>
<text text-anchor="middle" x="419.3" y="-100.5" font-family="Times,serif" font-size="11.00">3-BET</text>
</g>
<!-- node_25&#45;&gt;node_36 -->
<g id="edge13" class="edge">
<title>node_25-&gt;node_36</title>
<path fill="none" stroke="black" d="M363.04,-186.24C373.26,-171.44 392.89,-143.03 406.04,-123.99"/>
<polygon fill="black" stroke="black" points="408.75,-126.23 411.55,-116.01 402.99,-122.25 408.75,-126.23"/>
</g>
<!-- node_41 -->
<g id="node20" class="node">
<title>node_41</title>
<polygon fill="none" stroke="black" points="219.66,-21.2 174.94,-21.2 174.94,0 219.66,0 219.66,-21.2"/>
<text text-anchor="middle" x="197.3" y="-7.3" font-family="Times,serif" font-size="11.00">FOLD</text>
</g>
<!-- node_33&#45;&gt;node_41 -->
<g id="edge14" class="edge">
<title>node_33-&gt;node_41</title>
<path fill="none" stroke="black" d="M225.87,-93.04C220.82,-78.65 211.26,-51.39 204.59,-32.39"/>
<polygon fill="black" stroke="black" points="207.91,-31.27 201.3,-22.99 201.3,-33.59 207.91,-31.27"/>
</g>
<!-- node_42 -->
<g id="node21" class="node">
<title>node_42</title>
<polygon fill="none" stroke="black" points="282.66,-21.2 237.94,-21.2 237.94,0 282.66,0 282.66,-21.2"/>
<text text-anchor="middle" x="260.3" y="-7.3" font-family="Times,serif" font-size="11.00">CALL</text>
</g>
<!-- node_33&#45;&gt;node_42 -->
<g id="edge15" class="edge">
<title>node_33-&gt;node_42</title>
<path fill="none" stroke="black" d="M232.62,-93.04C237.51,-78.65 246.77,-51.39 253.23,-32.39"/>
<polygon fill="black" stroke="black" points="256.52,-33.59 256.42,-23 249.89,-31.34 256.52,-33.59"/>
</g>
<!-- node_43 -->
<g id="node22" class="node">
<title>node_43</title>
<polygon fill="none" stroke="black" points="409.66,-21.2 364.94,-21.2 364.94,0 409.66,0 409.66,-21.2"/>
<text text-anchor="middle" x="387.3" y="-7.3" font-family="Times,serif" font-size="11.00">FOLD</text>
</g>
<!-- node_36&#45;&gt;node_43 -->
<g id="edge16" class="edge">
<title>node_36-&gt;node_43</title>
<path fill="none" stroke="black" d="M415.87,-93.04C410.82,-78.65 401.26,-51.39 394.59,-32.39"/>
<polygon fill="black" stroke="black" points="397.91,-31.27 391.3,-22.99 391.3,-33.59 397.91,-31.27"/>
</g>
<!-- node_44 -->
<g id="node23" class="node">
<title>node_44</title>
<polygon fill="none" stroke="black" points="472.66,-21.2 427.94,-21.2 427.94,0 472.66,0 472.66,-21.2"/>
<text text-anchor="middle" x="450.3" y="-7.3" font-family="Times,serif" font-size="11.00">CALL</text>
</g>
<!-- node_36&#45;&gt;node_44 -->
<g id="edge17" class="edge">
<title>node_36-&gt;node_44</title>
<path fill="none" stroke="black" d="M422.62,-93.04C427.51,-78.65 436.77,-51.39 443.23,-32.39"/>
<polygon fill="black" stroke="black" points="446.52,-33.59 446.42,-23 439.89,-31.34 446.52,-33.59"/>
</g>
</g>
</svg>